<svg class="img-fluid" id="outputsvg" xmlns="http://www.w3.org/2000/svg"
  style="transform: none; transform-origin: 50% 50%; cursor: move; max-height: none;" width="128"
  height="128" viewBox="0 0 10240 10240">
  <g id="l63hTKCNiae7XANCFGETGXJ" fill="rgb(255,255,255)" style="transform: none;">
    <g style="transform: none;">
      <path id="p190zNA8Mz"
        d="M0 7850 c0 -2330 0 -2390 19 -2390 22 0 31 35 31 116 0 29 4 75 9 101 14 76 29 171 41 263 13 99 27 173 48 250 8 30 17 67 19 83 3 15 9 30 14 33 5 3 9 18 9 34 0 30 16 108 30 145 4 11 13 40 20 65 25 89 52 175 61 192 5 10 9 24 9 32 0 7 9 38 21 67 47 119 54 138 78 191 12 26 21 54 21 61 0 7 4 17 8 23 5 5 20 36 33 69 34 88 166 345 237 463 34 56 62 105 62 107 0 6 131 209 170 263 184 255 161 224 261 340 35 41 79 92 97 115 52 66 408 421 501 500 46 40 121 101 165 136 45 35 83 67 86 71 3 4 52 39 110 78 58 39 130 88 160 109 188 131 671 402 718 403 7 0 20 4 30 10 29 16 145 67 182 80 19 7 46 17 60 22 52 22 66 27 105 39 67 20 99 31 130 44 87 38 110 45 140 45 17 0 35 3 39 7 10 11 79 33 103 33 12 0 24 4 27 9 3 4 25 11 48 14 24 4 63 11 88 17 56 14 120 27 185 39 28 5 86 17 130 26 44 9 124 21 178 27 53 6 97 15 97 19 0 5 20 9 45 9 33 0 45 4 45 15 0 13 -266 15 -2335 15 l-2335 0 0 -2390z"></path>
      <path id="pJrqyUOk2"
        d="M5650 10215 c0 -23 3 -25 48 -25 48 0 182 -19 292 -40 84 -17 141 -27 185 -35 22 -4 49 -10 60 -15 11 -5 36 -11 55 -15 19 -3 50 -8 68 -12 18 -3 35 -9 38 -14 3 -5 14 -9 26 -9 11 0 50 -9 87 -21 73 -23 162 -49 231 -69 51 -14 66 -19 132 -49 26 -12 52 -21 58 -21 6 0 20 -5 33 -12 45 -23 57 -28 67 -28 6 0 41 -14 78 -31 37 -17 76 -34 87 -39 51 -20 327 -158 384 -192 34 -21 65 -38 68 -38 3 0 35 -22 72 -49 36 -26 75 -53 86 -58 50 -26 206 -33 737 -33 l548 0 1 -397 c0 -219 4 -478 8 -576 l7 -179 56 -49 c31 -27 71 -73 88 -102 18 -28 41 -62 52 -74 11 -12 30 -40 42 -61 11 -22 53 -86 91 -143 39 -57 77 -116 84 -131 8 -16 18 -28 23 -28 4 0 8 -6 8 -13 0 -13 37 -84 86 -162 13 -22 27 -47 30 -55 3 -8 15 -33 26 -55 36 -70 45 -89 62 -130 10 -22 30 -67 46 -100 15 -33 42 -98 59 -145 18 -47 36 -94 41 -105 42 -96 126 -371 182 -600 5 -22 14 -56 18 -75 28 -111 44 -182 51 -240 5 -36 14 -92 19 -125 5 -33 12 -90 16 -127 6 -63 9 -68 30 -68 l24 0 0 2285 0 2285 -2295 0 -2295 0 0 -25z"></path>
      <path id="p1DgkV7YnC"
        d="M6788 8463 l-888 -3 0 -115 0 -115 920 0 920 0 0 120 0 120 -32 -2 c-18 -2 -432 -4 -920 -5z"></path>
      <path id="ppGErrIlT"
        d="M5900 7875 l0 -115 1340 0 1341 0 -3 113 -3 112 -1337 3 -1338 2 0 -115z"></path>
      <path id="p7ssbtlFH"
        d="M7198 7513 l-1298 -3 0 -115 0 -115 1338 2 1337 3 3 104 c3 116 -4 132 -52 129 -17 -2 -615 -4 -1328 -5z"></path>
      <path id="p111QjM9xd" d="M5900 6925 l0 -115 1340 0 1340 0 0 115 0 115 -1340 0 -1340 0 0 -115z"></path>
      <path id="pRG2M2Z8H" d="M5900 6445 l0 -115 1338 2 1337 3 3 113 3 112 -1341 0 -1340 0 0 -115z"></path>
      <path id="p1Mch6rQz"
        d="M5900 5975 l0 -115 1340 0 1341 0 -3 113 -3 112 -1337 3 -1338 2 0 -115z"></path>
      <path id="p1As2r7Nd3" d="M5900 5495 l0 -115 1338 2 1337 3 0 110 0 110 -1337 3 -1338 2 0 -115z"></path>
      <path id="p1DLEeDgqS" d="M1670 4745 l0 -115 920 0 920 0 0 115 0 115 -920 0 -920 0 0 -115z"></path>
      <path id="p4K0KcNf6"
        d="M0 2375 l0 -2375 2370 0 c2345 0 2370 0 2370 20 0 14 -9 20 -37 25 -21 3 -69 10 -108 16 -38 6 -79 13 -90 15 -11 3 -63 9 -115 14 -209 20 -197 18 -322 51 -24 6 -52 15 -63 19 -11 5 -36 11 -55 14 -67 11 -157 34 -230 59 -25 9 -65 21 -90 27 -25 7 -53 16 -62 21 -10 5 -26 9 -36 9 -10 0 -22 4 -27 9 -6 5 -59 26 -120 46 -60 20 -125 43 -142 51 -139 60 -224 94 -240 94 -7 0 -13 5 -13 10 0 6 -9 10 -19 10 -11 0 -21 3 -23 8 -1 4 -33 23 -70 42 -38 19 -68 37 -68 41 0 3 -33 20 -72 39 -70 32 -154 87 -208 137 -55 51 -82 53 -715 53 -657 0 -637 -2 -649 67 -3 21 -6 261 -6 533 0 287 -4 509 -10 529 -5 18 -31 57 -57 85 -26 29 -55 62 -64 73 -31 38 -215 318 -239 363 -14 25 -27 47 -30 50 -9 9 -76 122 -115 195 -21 39 -46 82 -57 97 -10 14 -18 31 -18 37 0 6 -4 11 -10 11 -5 0 -10 6 -10 14 0 7 -14 42 -31 77 -33 66 -39 80 -59 139 -7 19 -30 72 -51 117 -22 44 -39 90 -39 101 0 12 -4 24 -10 27 -5 3 -10 16 -10 29 0 12 -3 26 -7 29 -10 10 -52 139 -53 160 0 9 -4 25 -9 35 -14 28 -29 66 -36 92 -3 14 -11 41 -16 60 -6 19 -14 53 -19 75 -4 22 -18 76 -30 120 -37 135 -56 239 -90 480 -5 39 -14 102 -19 140 -5 39 -12 79 -15 90 -3 11 -8 37 -11 58 -4 28 -11 37 -25 37 -20 0 -20 -25 -20 -2375z"></path>
      <path id="pn4HdBCHQ"
        d="M10203 4573 c-8 -3 -13 -24 -13 -53 0 -27 -4 -60 -9 -73 -6 -14 -15 -72 -21 -128 -7 -57 -16 -112 -21 -121 -5 -10 -9 -27 -9 -37 0 -11 -7 -46 -16 -78 -21 -75 -33 -127 -44 -183 -16 -81 -21 -105 -30 -125 -15 -37 -50 -160 -50 -177 0 -9 -4 -19 -8 -22 -4 -3 -14 -28 -22 -56 -8 -28 -18 -53 -22 -56 -4 -3 -8 -13 -8 -22 0 -22 -90 -253 -157 -402 -41 -92 -147 -305 -154 -310 -3 -3 -26 -43 -50 -90 -81 -159 -451 -695 -539 -780 -8 -8 -35 -40 -60 -70 -57 -70 -451 -464 -510 -510 -25 -19 -52 -42 -60 -50 -8 -9 -31 -27 -50 -40 -19 -13 -37 -27 -40 -30 -3 -3 -41 -34 -85 -68 -44 -34 -85 -66 -90 -71 -6 -4 -67 -45 -135 -91 -69 -46 -127 -86 -130 -90 -3 -4 -25 -18 -50 -31 -49 -27 -102 -60 -110 -69 -3 -4 -12 -9 -20 -13 -8 -4 -46 -25 -85 -47 -105 -60 -452 -230 -532 -261 -13 -5 -33 -13 -45 -18 -118 -47 -352 -128 -468 -161 -25 -7 -54 -16 -65 -20 -34 -13 -150 -43 -235 -60 -30 -7 -71 -16 -90 -20 -19 -5 -53 -12 -75 -15 -22 -4 -60 -11 -85 -16 -25 -5 -74 -14 -110 -19 -36 -5 -94 -14 -130 -20 -56 -9 -210 -27 -247 -29 -7 -1 -13 -10 -13 -21 0 -20 7 -20 2365 -20 l2365 0 0 2290 c0 1826 -3 2290 -12 2289 -7 0 -19 -3 -25 -6z"></path>
      <path id="piQsTrQOQ" d="M1670 4265 l0 -115 1335 0 1335 0 0 115 0 115 -1335 0 -1335 0 0 -115z"></path>
      <path id="pGCj8YyCw"
        d="M1672 3793 l3 -118 38 1 c20 0 620 1 1332 2 l1295 2 0 115 0 115 -1335 0 -1336 0 3 -117z"></path>
      <path id="pG69ZSO3Y" d="M1670 3315 l0 -115 1335 0 1335 0 0 115 0 115 -1335 0 -1335 0 0 -115z"></path>
      <path id="p4FQm47NL"
        d="M1672 2843 l3 -118 38 1 c20 0 620 1 1332 2 l1295 2 0 115 0 115 -1335 0 -1336 0 3 -117z"></path>
      <path id="pYBNojKD4" d="M1670 2365 l0 -115 1335 0 1335 0 0 115 0 115 -1335 0 -1335 0 0 -115z"></path>
      <path id="pMWM5rsuN" d="M1670 1895 l0 -115 1335 0 1335 0 0 115 0 115 -1335 0 -1335 0 0 -115z"></path>
    </g>
  </g>
  <g id="l5VKxnSXZWJ7ti4rRjM0EUh" fill="rgb(83,179,237)" style="transform: none;">
    <g style="transform: none;">
      <path id="pM4wAQ7jg"
        d="M1108 3918 c-3 -1517 -1 -1951 9 -1978 9 -26 12 -167 13 -535 0 -275 3 -517 6 -538 12 -69 -8 -67 651 -67 492 0 596 -3 637 -15 42 -13 181 -15 953 -15 l903 0 0 316 0 316 310 -4 310 -3 0 2233 0 2232 -1894 0 -1894 0 -4 -1942z m2372 827 l0 -85 -890 0 -890 0 0 85 0 85 890 0 890 0 0 -85z m830 -480 l0 -85 -1305 0 -1305 0 0 85 0 85 1305 0 1305 0 0 -85z m0 -470 l0 -85 -1295 0 c-712 0 -1298 0 -1302 0 -5 0 -9 38 -11 85 l-3 85 1306 0 1305 0 0 -85z m0 -480 l0 -85 -1305 0 -1305 0 0 85 0 85 1305 0 1305 0 0 -85z m0 -470 l0 -85 -1295 0 c-712 0 -1298 0 -1302 0 -5 0 -9 38 -11 85 l-3 85 1306 0 1305 0 0 -85z m0 -480 l0 -85 -1305 0 -1305 0 0 85 0 85 1305 0 1305 0 0 -85z m0 -470 l0 -85 -1305 0 -1305 0 0 85 0 85 1305 0 1305 0 0 -85z"></path>
    </g>
  </g>
  <g id="l59rihpCJdMllR5kx87d7Yp" fill="rgb(255,195,47)" style="transform: none;">
    <g style="transform: none;">
      <path id="p10DpoohOz"
        d="M4280 8019 c-378 -27 -773 -171 -1122 -408 -187 -127 -400 -337 -570 -563 -39 -51 -74 -94 -78 -96 -5 -2 -37 14 -72 36 -139 84 -197 112 -232 112 -35 0 -36 -1 -36 -36 0 -29 106 -443 176 -691 22 -75 -21 -80 509 62 116 31 227 61 248 66 34 9 37 12 37 47 l-1 37 -139 79 -139 79 47 61 c362 471 865 819 1432 989 174 53 459 107 561 107 l40 0 -3 37 -3 38 -90 17 c-99 19 -320 39 -399 37 -28 -1 -103 -6 -166 -10z"></path>
      <path id="p17R4Ow8FE"
        d="M8758 5063 l-308 -3 0 -340 0 -340 33 0 c29 0 62 30 340 308 293 293 307 309 307 345 0 36 -1 37 -32 35 -18 -2 -171 -4 -340 -5z"></path>
    </g>
  </g>
  <g id="l3nW7gJQzIWQKuTPHNJVmlX" fill="rgb(255,87,107)" style="transform: none;">
    <g style="transform: none;">
      <path id="p4m2ge3gU"
        d="M5338 7120 c-2 -1292 -3 -2437 -3 -2542 l0 -193 1588 -3 1587 -2 0 26 c0 22 -2 25 -15 14 -13 -11 -15 23 -15 298 l0 311 310 3 c171 2 310 1 310 -2 0 -4 -5 -11 -12 -18 -9 -9 -7 -12 9 -12 12 0 24 3 26 8 8 12 9 3270 1 3875 l-7 557 -551 0 c-438 0 -571 3 -650 15 -84 13 -290 15 -1338 15 l-1238 0 -2 -2350z m2372 1230 l0 -90 -890 0 -890 0 0 85 0 85 888 3 c488 1 888 3 890 5 1 1 2 -38 2 -88z m838 -477 l3 -83 -1311 0 -1310 0 0 85 0 85 1308 -2 1307 -3 3 -82z m0 -482 l-3 -76 -1307 -3 -1308 -2 0 85 0 85 1298 2 c762 2 1302 -1 1310 -6 9 -6 12 -32 10 -85z m2 -466 l0 -85 -1310 0 -1310 0 0 85 0 85 1310 0 1310 0 0 -85z m-2 -477 l-3 -83 -1307 -3 -1308 -2 0 85 0 85 1310 0 1311 0 -3 -82z m0 -475 l3 -83 -1311 0 -1310 0 0 85 0 85 1308 -2 1307 -3 3 -82z m-3 -478 l0 -80 -1307 -3 -1308 -2 0 85 0 85 1308 -2 1307 -3 0 -80z"></path>
      <path id="p5Fj04XZA"
        d="M7685 3886 c-112 -31 -447 -121 -542 -146 -41 -10 -43 -13 -43 -48 l1 -37 140 -78 139 -78 -47 -62 c-390 -507 -929 -863 -1547 -1022 -128 -33 -310 -64 -414 -72 l-83 -6 3 -36 c3 -34 5 -36 75 -58 155 -48 227 -58 438 -57 163 0 221 4 315 22 385 72 763 253 1102 526 149 121 341 328 459 496 24 33 47 60 52 60 5 0 66 -34 137 -75 95 -55 138 -75 164 -75 35 0 36 1 36 36 0 19 -36 171 -81 337 -120 453 -104 407 -147 406 -20 0 -91 -15 -157 -33z"></path>
      <path id="pR8MhW2Qc"
        d="M4870 1443 c0 -17 -20 -18 -310 -15 l-310 3 0 -316 c0 -273 -2 -315 -15 -315 -8 0 -15 -4 -15 -10 0 -5 15 -10 33 -10 30 0 61 28 332 300 284 284 300 302 303 340 2 23 -1 40 -7 40 -6 0 -11 -8 -11 -17z"></path>
    </g>
  </g>
  <g id="l5M8076PjwV0oJRgcXuK3wA" fill="rgb(28,59,92)" style="transform: none;">
    <g style="transform: none;">
      <path id="pyVfubztr"
        d="M4505 10219 c-82 -10 -186 -25 -230 -34 -44 -9 -102 -21 -130 -26 -65 -12 -129 -25 -185 -39 -25 -6 -64 -13 -88 -17 -23 -3 -45 -10 -48 -14 -3 -5 -15 -9 -27 -9 -24 0 -93 -22 -103 -33 -4 -4 -22 -7 -39 -7 -30 0 -59 -9 -140 -45 -16 -7 -48 -19 -70 -26 -67 -20 -99 -31 -122 -40 -13 -5 -33 -13 -45 -18 -13 -5 -39 -14 -58 -21 -37 -13 -153 -64 -182 -80 -10 -6 -23 -10 -30 -10 -47 -1 -530 -272 -718 -403 -30 -21 -102 -70 -160 -109 -58 -39 -107 -74 -110 -78 -3 -4 -41 -36 -86 -71 -44 -35 -119 -96 -165 -136 -93 -79 -449 -434 -501 -500 -18 -23 -62 -74 -97 -115 -91 -105 -93 -107 -164 -207 -36 -49 -80 -109 -97 -133 -39 -54 -170 -257 -170 -263 0 -2 -28 -51 -62 -107 -71 -118 -203 -375 -237 -463 -13 -33 -28 -64 -33 -69 -4 -6 -8 -16 -8 -23 0 -7 -9 -35 -21 -61 -24 -53 -31 -72 -78 -191 -12 -29 -21 -60 -21 -67 0 -8 -4 -22 -9 -32 -9 -17 -36 -103 -61 -192 -7 -25 -16 -54 -20 -65 -14 -37 -30 -115 -30 -145 0 -16 -4 -31 -9 -34 -5 -3 -11 -18 -14 -33 -2 -16 -11 -53 -19 -83 -20 -73 -36 -153 -43 -215 -8 -65 -21 -153 -35 -235 -27 -158 -34 -297 -34 -665 0 -277 3 -406 12 -445 12 -52 20 -105 42 -265 34 -241 53 -345 90 -480 12 -44 26 -98 30 -120 5 -22 13 -56 19 -75 5 -19 13 -46 16 -60 7 -26 22 -64 36 -92 5 -10 9 -26 9 -35 1 -21 43 -150 53 -160 4 -3 7 -17 7 -29 0 -13 5 -26 10 -29 6 -3 10 -15 10 -27 0 -11 17 -57 39 -101 21 -45 44 -98 51 -117 20 -59 26 -73 59 -139 17 -35 31 -70 31 -77 0 -8 5 -14 10 -14 6 0 10 -5 10 -11 0 -6 8 -23 18 -37 11 -15 36 -58 57 -97 39 -73 106 -186 115 -195 3 -3 16 -25 30 -50 25 -46 209 -326 239 -363 9 -11 40 -46 68 -79 30 -32 53 -67 53 -80 0 -12 2 -19 5 -17 9 10 13 707 14 2302 l1 1617 1865 0 1865 0 0 -2202 0 -2203 -312 -312 -312 -313 -931 -1 c-808 -1 -924 -3 -885 -15 25 -8 56 -24 70 -37 54 -50 138 -105 208 -137 39 -19 72 -36 72 -39 0 -4 30 -22 68 -41 37 -19 69 -38 70 -42 2 -5 12 -8 23 -8 10 0 19 -4 19 -10 0 -5 6 -10 13 -10 16 0 111 -37 237 -93 19 -9 85 -32 145 -52 61 -20 114 -41 120 -46 5 -5 17 -9 27 -9 10 0 26 -4 36 -9 9 -5 37 -14 62 -21 25 -6 65 -18 90 -27 73 -25 163 -48 230 -59 19 -3 44 -9 55 -14 11 -4 40 -13 65 -20 117 -31 109 -30 315 -50 85 -8 126 -14 285 -43 43 -7 210 -11 485 -11 404 0 484 4 675 34 36 6 94 15 130 20 36 5 85 14 110 19 25 5 63 12 85 16 22 3 56 10 75 15 19 4 60 13 90 20 85 17 201 47 235 60 11 4 40 13 65 20 116 33 350 114 468 161 12 5 32 13 45 18 80 31 427 201 532 261 39 22 77 43 85 47 8 4 17 9 20 13 8 9 61 42 110 69 25 13 47 27 50 31 3 4 61 44 130 90 68 46 129 87 135 91 5 5 46 37 90 71 44 34 82 65 85 68 3 3 21 17 40 30 19 13 42 31 50 40 8 8 35 31 60 50 59 46 453 440 510 510 25 30 52 62 60 70 88 85 458 621 539 780 24 47 47 87 50 90 7 5 113 218 154 310 67 149 157 380 157 402 0 9 4 19 8 22 4 3 14 28 22 56 8 28 18 53 22 56 4 3 8 13 8 22 0 17 35 140 50 177 9 20 14 44 30 125 11 56 23 108 44 183 9 32 16 69 16 82 0 13 5 27 10 30 6 3 10 23 10 43 0 20 7 78 16 127 9 50 21 119 26 155 13 81 22 1210 10 1210 -5 0 -12 30 -16 68 -4 37 -11 94 -16 127 -5 33 -14 89 -19 125 -7 58 -23 129 -51 240 -4 19 -13 53 -18 75 -56 229 -140 504 -182 600 -5 11 -23 58 -41 105 -17 47 -44 112 -59 145 -16 33 -36 78 -46 100 -17 41 -26 60 -62 130 -11 22 -23 47 -26 55 -3 8 -17 33 -30 55 -49 78 -86 149 -86 162 0 7 -4 13 -8 13 -5 0 -15 12 -23 28 -7 15 -45 74 -84 131 -38 57 -80 121 -91 143 -12 21 -31 49 -42 61 -11 12 -34 46 -52 74 -17 29 -57 75 -88 102 l-57 50 -5 153 -5 153 -7 -135 c-4 -74 -10 -877 -13 -1785 l-6 -1650 -307 -308 -307 -307 -1560 2 -1560 3 0 163 c0 89 1 1220 3 2512 l2 2350 1313 1 c770 1 1287 5 1252 10 -93 13 -97 15 -178 74 -41 30 -77 55 -80 55 -3 0 -34 17 -68 38 -57 34 -333 172 -384 192 -11 5 -50 22 -87 39 -37 17 -72 31 -78 31 -5 0 -19 5 -30 10 -11 6 -29 15 -40 20 -11 6 -24 10 -30 10 -6 0 -32 9 -58 21 -66 30 -81 35 -132 49 -63 18 -158 46 -234 70 -35 11 -73 20 -84 20 -12 0 -23 4 -26 9 -3 5 -20 11 -38 14 -18 4 -49 9 -68 12 -19 4 -44 10 -55 15 -11 5 -38 11 -60 15 -44 8 -101 18 -185 35 -101 20 -243 40 -281 40 -21 0 -41 5 -44 10 -4 6 -188 10 -523 9 -436 -1 -540 -4 -667 -20z m90 -2229 c199 -17 400 -60 277 -60 -103 0 -386 -54 -562 -107 -457 -137 -866 -384 -1204 -728 -118 -120 -296 -338 -296 -361 0 -5 67 -47 148 -93 168 -97 157 -89 150 -96 -5 -5 -219 -64 -602 -165 -61 -16 -112 -28 -114 -25 -8 8 -193 707 -188 712 5 5 81 -36 230 -124 l88 -52 82 108 c315 420 661 687 1107 854 244 92 441 130 739 145 14 1 79 -3 145 -8z m3269 -4152 c49 -173 176 -661 173 -665 -3 -2 -76 36 -162 86 l-157 90 -88 -117 c-86 -114 -249 -301 -326 -373 -142 -132 -370 -291 -564 -392 -452 -236 -907 -312 -1276 -213 -49 14 -102 30 -119 37 -29 12 -26 13 51 20 637 58 1273 361 1727 822 126 128 307 348 307 374 0 6 -67 48 -150 94 -82 46 -149 87 -150 91 0 4 19 12 43 18 95 25 430 115 542 146 66 18 123 33 127 33 4 1 13 -23 22 -51z"></path>
    </g>
  </g>
</svg>